<?xml version="1.0" encoding="utf-8"?>
<!-- Generator: Adobe Illustrator 18.1.1, SVG Export Plug-In . SVG Version: 6.00 Build 0)  -->
<svg version="1.1" id="Layer_1" xmlns="http://www.w3.org/2000/svg" xmlns:xlink="http://www.w3.org/1999/xlink" x="0px" y="0px"
	 viewBox="0 0 499.4 263.7" enable-background="new 0 0 499.4 263.7" xml:space="preserve">
<g>
	<g>
		<path fill="#F05562" d="M91.5,187.3c0.6-8,5.5-27,7.7-42.5c1.8-13-1-21.3-9-23.5c-15.5-4.1-29,15.9-29,15.9l-0.1,0.5
			c-2-18.1-23.3-15.3-26.8-5.2c5.7-0.3,8.7,8.9,3,27.2c-4.9,15.9-10.5,29.8-4.5,39.7c7,11.5,26,6,26.7-5.1
			c-6.4,0.6-5.7-12.2-3.5-25.1c0.2-0.6,0.4-1.8,0.7-3.7c2.8-15.8,17.3-29.4,21-23.8c7.1,10.9-17.8,59.1-2.3,76.5
			c11.3,12.6,32.5,1,33.1-12.4C103.4,208.2,90.3,205.2,91.5,187.3 M42.2,129.7c-0.2,0.3-0.6,0.6-1.1,0.9c-1,0.6-2,0.9-2.3,0.5
			c-0.3-0.4,0.2-1.3,1.3-2.1c0.5-0.4,1.1-0.6,1.6-0.6c0.5,0,0.9,0.2,0.9,0.4C42.5,129.2,42.4,129.5,42.2,129.7 M67.5,136.8
			c-0.5,0-1-0.4-1-1c0-0.5,0.4-1,1-1c0.5,0,1,0.4,1,1C68.4,136.4,68,136.8,67.5,136.8 M81.4,127.5c-1.9,0.6-4.7,1.9-6.9,3.3
			c-2.3,1.3-4.1,2.5-4.2,2.3c-0.2-0.2,1.3-1.8,3.4-3.5c2.1-1.7,5-3.3,7.1-4c1.9-0.6,2.4-0.2,2.5,0.3C83.3,126.5,82.9,127,81.4,127.5
			"/>
		<path fill="#F05562" d="M21.9,123.5c7-0.8,13-7.3,13.3-14.4c0.3-7.1-5.1-12.3-12.1-11.5c-7,0.8-13,7.3-13.3,14.4
			C9.5,119.2,14.9,124.3,21.9,123.5 M14.3,109c0.3-0.8,0.8-1.9,1.6-3c1.6-2.1,4.2-4.1,6.4-4.7c1-0.3,1.6-0.2,2,0
			c0.4,0.2,0.5,0.4,0.4,0.7c0,0.6-0.5,0.9-1.8,1.3c-1.7,0.4-4.1,2-5.9,3.7c-0.9,0.8-1.6,1.7-2,2.3c-0.4,0.6-0.6,1.1-0.8,1.1
			C14.1,110.4,14,109.8,14.3,109 M12.7,113.8c0-0.5,0.4-1,1-1c0.5,0,1,0.4,1,1c0,0.5-0.4,1-1,1C13.1,114.8,12.7,114.3,12.7,113.8"/>
		<path fill="#F05562" d="M4,141.2c5.7-0.3,8.7,8.9,3,27.2c-4.9,15.9-10.5,29.8-4.5,39.7c7,11.5,26,6,26.7-5.1
			c-10.5-4.2-5-24,0.7-45.8C37.7,127.7,8.1,129.3,4,141.2 M12.4,138.3c-0.2,0.3-0.6,0.6-1.1,0.9c-1,0.6-2,0.9-2.3,0.5
			c-0.3-0.4,0.2-1.4,1.3-2.1c0.5-0.4,1.1-0.6,1.6-0.6c0.5,0,0.9,0.2,0.9,0.4C12.7,137.8,12.6,138,12.4,138.3"/>
		<path fill="#F05562" d="M264,150.8c-4.9,15.9-10.5,29.8-4.5,39.7c7,11.5,26,6,26.7-5.1c-8,0.8-4.8-19.7-1.6-35
			c9.6-36.5,42.4-56.8,53.7-46.2c10.4-7.8,5.1-27.9-13.6-25.8c-19.3,2.2-31.6,26.2-38.3,44.9c-5.3-11.9-22.3-8.7-25.4,0.3
			C265.4,126,269.4,133.5,264,150.8 M305.1,94.9c2.1-2.5,4.7-5.1,7.5-7.2c2.7-2.1,5.7-3.8,8.2-4.6c2.3-0.8,3.8-0.8,4.7-0.7
			c0.9,0.1,1.1,0.4,1.1,0.7c0,0.3-0.4,0.5-1.2,0.8c-0.8,0.3-2.1,0.5-4,1.2c-2.3,0.8-5.1,2.2-7.7,4.2c-2.7,2-5.3,4.4-7.5,6.7
			c-4.5,4.7-7.5,9-7.8,8.8C298.2,104.6,300.8,100,305.1,94.9 M297,106.5c0.5,0,1,0.4,1,1c0,0.5-0.4,1-1,1c-0.5,0-1-0.4-1-1
			C296.1,107,296.5,106.5,297,106.5 M266.3,120.5c0.5-0.3,1.1-0.6,1.6-0.6c0.5,0,0.9,0.2,0.9,0.4c0,0.3-0.1,0.5-0.4,0.8
			c-0.2,0.3-0.6,0.6-1.1,0.9c-1,0.6-2,0.9-2.3,0.5C264.7,122.2,265.2,121.2,266.3,120.5"/>
		<path fill="#F05562" d="M355.5,147.2c-0.6,13.5-19.1,29.7-32.4,21.8c-2.8-1.7-4.6-4.1-5.6-6.9c27.8-5.1,43.8-29.2,36.8-42.5
			c-8.5-16.2-39.7-8.7-55.3,17.1c-9.9,16.4-13.1,41.6,1.7,54.3c18.5,15.8,54.1,6.1,62.5-20.3C367.8,155.9,359.6,147.2,355.5,147.2
			 M338.9,137.4c0.3,0,0.4,0.6-0.1,2c-0.3,0.9-0.9,1.9-1.6,2.9c-0.7,1-1.6,1.9-2.5,2.6c-1.8,1.5-3.5,2.3-3.5,2.2
			c-0.1-0.1,1.5-1.1,3-2.7c1.6-1.5,3.1-3.8,3.7-5.3C338.4,137.7,338.6,137.4,338.9,137.4 M298.6,147.7c-0.5,0-1-0.4-1-1
			c0-0.5,0.4-1,1-1c0.5,0,1,0.4,1,1C299.6,147.3,299.1,147.7,298.6,147.7 M307.1,134.1c-4.2,4.7-6.7,9.1-6.9,9
			c-0.3-0.1,1.8-4.9,5.8-9.9c2-2.5,4.3-5.1,6.8-7.4c2.5-2.3,5.1-4.2,7.2-5.4c2-1.2,3.4-1.6,4.2-1.7c0.8-0.1,1.1,0,1.2,0.3
			c0.2,0.6-1,1.3-4.4,3.2c-2.1,1.2-4.6,3-7,5.1C311.6,129.3,309.1,131.8,307.1,134.1 M333.1,129.1c9.2,2.4-1.2,19.1-16.5,22.9
			C318,140.1,326.6,127.4,333.1,129.1 M357.9,158.6c-0.5,1.4-1.3,3.1-2.5,4.7c-1.1,1.6-2.6,3.1-4.1,4.2c-3.1,2.3-6.1,2.8-6.2,2.5
			c-0.1-0.3,2.7-1.3,5.2-3.6c1.3-1.2,2.5-2.6,3.4-4.1c1-1.5,1.6-3.1,2.1-4.3c0.8-2.3,1.2-2.7,1.8-2.6
			C358.3,155.3,358.7,156.3,357.9,158.6"/>
		<path fill="#F05562" d="M481,0.1c-10.7,1.2-19.7,11.1-20.2,21.9c-0.5,10.9,7.7,18.7,18.4,17.4c10.7-1.2,19.7-11.1,20.2-21.9
			C499.9,6.7,491.6-1.1,481,0.1 M467.3,25.9c-0.8,0-1.4-0.6-1.4-1.4c0-0.8,0.6-1.4,1.4-1.4c0.8,0,1.4,0.6,1.4,1.4
			C468.7,25.2,468.1,25.9,467.3,25.9 M483.4,8c-0.4,0.4-1,0.7-2,0.9c-1.2,0.3-2.8,1-4.3,2c-1.6,0.9-3.1,2.1-4.5,3.4
			c-1.3,1.2-2.4,2.5-3.1,3.4c-0.7,0.9-1.1,1.6-1.3,1.6c-0.3,0-0.4-0.9-0.1-2.2c0.3-1.3,1.2-3,2.4-4.6c1.2-1.6,2.8-3.2,4.5-4.5
			c1.7-1.3,3.6-2.3,5.3-2.7c1.5-0.4,2.6-0.3,3.1,0c0.6,0.3,0.7,0.9,0.7,1.4C484.1,7.2,483.8,7.6,483.4,8"/>
		<path fill="#F05562" d="M446.8,58c1-0.5,7.4,1.7,3.3,15.8c-5.8,20.3-28.5,35.6-42.7,23.9c-15.4-12.7-1.7-42.3,16.7-51.4
			c12.7-6.3,16.1-1.2,16.1-1.2c10.9-3.6,17.7-27.6-3.2-34.8c-34.1-11.7-80.7,31-75.8,74.8c1.2,10.9,4.4,23.4,15.1,31.6
			c20.3,15.6,54.5,10.2,70.4-16.1c-0.2,3.8-16.4,29.7-28.4,53.9c-12,24.1-17.4,54.5,3.8,65.2c17.1,8.7,38.3-8.9,38.1-22.5
			c-5.6,2.7-13-9.1-9.5-30.2c5.6-33.5,34-80.4,31.6-104.3C480.5,44.7,457,41,446.8,58 M370.9,59.7c-0.7,0-1.3-0.6-1.3-1.3
			c0-0.7,0.6-1.3,1.3-1.3c0.7,0,1.3,0.6,1.3,1.3C372.2,59.1,371.6,59.7,370.9,59.7 M384.8,40.3c-6.3,6.8-10.4,13.1-10.9,12.8
			c-0.5-0.3,2.8-7.2,8.8-14.6c3-3.7,6.6-7.6,10.5-10.8c3.9-3.2,8-5.8,11.5-7.3c3.2-1.4,5.3-1.8,6.6-1.8c1.3,0,1.7,0.5,1.9,1
			c0.1,0.5-0.3,1.1-1.4,1.8c-1.1,0.7-2.8,1.4-5.4,2.6c-3.2,1.4-7,3.7-10.8,6.5C391.6,33.4,387.9,36.9,384.8,40.3 M448.1,88.6
			c0.7-1.3,1.1-2.1,1.4-2.6c0.3-0.4,0.6-0.5,0.9-0.4c0.5,0.1,0.8,1.3-0.6,3.9c-0.8,1.6-2.1,3.5-3.7,5.2c-1.6,1.7-3.5,3.3-5.4,4.6
			c-3.7,2.5-7.1,3.8-7.2,3.5c-0.1-0.2,3-1.9,6.4-4.6c1.7-1.4,3.4-3,4.8-4.7 M457.6,57.9c-1.4,0.8-2.9,1-3.5,0.2
			c-0.6-0.8,0.2-2.3,1.8-3.3c0.8-0.5,1.8-0.7,2.5-0.6c0.7,0.1,1.2,0.4,1.3,0.9C459.8,56.1,459,57.1,457.6,57.9"/>
		<path fill="#F05562" d="M248.3,110.5c7-0.8,13-7.3,13.3-14.4c0.3-7.1-5.1-12.3-12.1-11.5c-7,0.8-13,7.3-13.3,14.4
			C235.8,106.2,241.2,111.3,248.3,110.5 M240.4,96.1c0.3-0.8,0.8-1.9,1.6-3c1.6-2.1,4.2-4.1,6.4-4.7c1-0.3,1.6-0.2,2,0
			c0.4,0.2,0.4,0.4,0.4,0.7c0,0.6-0.5,0.9-1.8,1.3c-1.7,0.4-4.1,2-5.9,3.7c-0.9,0.8-1.6,1.7-2,2.3c-0.4,0.6-0.6,1.1-0.8,1.1
			C240.2,97.5,240.2,97,240.4,96.1 M238.8,100.9c0-0.5,0.4-1,1-1s1,0.4,1,1c0,0.5-0.4,1-1,1S238.8,101.4,238.8,100.9"/>
		<path fill="#F05562" d="M228.4,195.4c7,11.5,26.2,6.9,27-4.2c-11.8-5-2.5-33.1,0.4-46.7c6.5-29.8-22-27.9-26-16
			c5.7-0.3,8.7,8.9,3,27.2C228,171.6,222.4,185.6,228.4,195.4 M235.1,126.5c-0.3-0.4,0.2-1.3,1.3-2.1c0.5-0.4,1.1-0.6,1.6-0.6
			c0.5,0,0.9,0.2,0.9,0.4c0,0.3-0.1,0.5-0.4,0.8c-0.2,0.3-0.6,0.6-1.1,0.9C236.4,126.6,235.4,126.9,235.1,126.5"/>
		<path fill="#F05562" d="M142.7,182.6c6.3-16.6-3.8-28.4-10.6-34c-13.4-11-7.7-17.3-3.9-17.6c3.6-0.3,7.6,4,4.6,9.3
			c8.7,11.5,29.7-3.5,18.7-18.7c-10.6-14.5-39.6-4.1-44.3,14.9c-5.2,21.2,16.6,30.2,10.5,38.1c-4.2,5.5-12.4,2.4-10.4-5.2
			c-10.9,3.8-11.5,17.7-6,25.3C108.4,204.5,133.7,206.5,142.7,182.6 M113,133.4c-0.5,0-1-0.4-1-1c0-0.5,0.4-1,1-1c0.5,0,1,0.4,1,1
			C113.9,132.9,113.5,133.4,113,133.4 M115,129.6c-0.2-0.2,1.1-2.5,3.6-4.7c2.4-2.3,5.9-4.3,8.5-5.1c1.2-0.4,1.9-0.4,2.4-0.3
			c0.5,0.1,0.6,0.4,0.6,0.6c0.1,0.6-0.5,1-2.4,1.6c-2.3,0.7-5.6,2.4-8.2,4.3C117,127.9,115.3,129.8,115,129.6 M121.9,175.4
			c-0.5,1-1.5,2.5-2.8,3.3c-1.2,0.8-2.4,1-2.5,0.9c-0.1-0.2,1-0.6,2-1.4c1-0.9,1.9-2.2,2.3-3.2c0.4-0.9,0.6-1,0.9-0.9
			C122.1,174.2,122.3,174.6,121.9,175.4"/>
		<path fill="#F05562" d="M289.1,196.1c-23.1,28.1-80.5,7.1-120.5,2c0.3-0.8,0.6-1.6,0.9-2.5c0.9-2.6,1.6-4.8,2.2-6.9
			c2.2,3,5.9,5.4,11.8,6.5c8.3,1.6,16.6-2.8,23.5-10.4c17.8-19.7,26.8-60.4,8.8-71.4c-13.7-8.3-28.2,3.5-33.7,12.9
			c0.2-22.6-24.9-19.2-27.7-8.8c5.1-2.3,9.1,3.6,6,20.4c-2,10.7-4.2,21-6.3,30.5c-3.2,14.3-3.2,18.1-5.5,26.6
			c-0.2,0.8-0.4,1.6-0.6,2.4c-6.8,0.7-12.3,2.8-16.1,6.8c-15.7,16.9,9.7,33.7,27.6,11.1c1.6-2.1,3.4-4.5,5.2-7.9
			c31.2,6.1,70.5,30.1,94.3,26.8C294.6,229.4,296.9,200.4,289.1,196.1 M178.4,170.3c-0.7,0.7-1.6,1.2-2,0.9
			c-0.4-0.3-0.2-1.3,0.7-2.2c0.5-0.4,1-0.7,1.5-0.8c0.5,0,0.8,0.1,0.9,0.4C179.6,169.1,179.2,169.6,178.4,170.3 M197.9,170.9
			c-0.5,0.9-1.7,1.8-2.9,2.2c-1.1,0.4-2.1,0.6-2.1,0.4c-0.1-0.1,0.8-0.5,1.8-1.1c1-0.6,1.9-1.4,2.3-2.1c0.4-0.6,0.6-0.7,0.9-0.6
			C198.2,169.9,198.3,170.3,197.9,170.9 M193.8,118.1c1.2-0.9,2.6-1.8,4-2.5c1.4-0.7,2.9-1.1,4.1-1.4c2.2-0.4,2.7,0.2,2.7,0.8
			c0,0.6-0.6,1-2.3,1.3c-1,0.2-2.4,0.5-3.7,1.1c-1.4,0.5-2.7,1.2-4,1.9c-2.5,1.4-4.3,2.9-4.5,2.6C189.9,121.8,191.4,120,193.8,118.1
			 M187.5,123.5c0.5,0,1,0.4,1,1c0,0.5-0.4,1-1,1s-1-0.4-1-1C186.6,123.9,187,123.5,187.5,123.5 M170,172.5c0.5-1.7,1.3-3.4,2.3-5
			c1-1.6,2.3-3,3.7-4.3c0.4-0.4,0.9-0.7,1.3-1c0.4-2.3,0.9-4.5,1.3-6.9c4.6-23.5,24.6-36,26.5-17.3c1.2,12.6-6.6,28.8-12.4,32.7
			c-7.4,4.9-11.8-0.2-11.6-6.4c-0.3,0.1-0.7,0.2-1.1,0.4c-0.8,0.3-1.5,0.6-2.2,1c-1.4,0.8-2.7,1.8-3.9,3c-1.2,1.2-2.2,2.6-3,4.1
			c-0.8,1.5-1.4,3.2-1.7,4.9C169.2,176.1,169.5,174.2,170,172.5 M131.5,210.4c-0.4,0-0.7-0.3-0.7-0.7c0-0.4,0.3-0.7,0.7-0.7
			c0.4,0,0.7,0.3,0.7,0.7C132.2,210,131.9,210.4,131.5,210.4 M132.8,207.5c-0.2-0.1,0.2-1.1,1-2c0.8-1,2-2,2.9-2.4
			c0.8-0.4,1.1-0.1,1.3,0.2c0.2,0.4,0.1,0.8-0.6,1.1c-0.8,0.4-1.9,1.1-2.8,1.8C133.7,207,133,207.7,132.8,207.5 M140.7,207.1
			c4.5-0.7,6.3-6.4,6.2-5.9c-2.6,8.5-5.1,11.6-8,11.5C135.7,212.6,135.9,207.8,140.7,207.1 M147.2,211.5c-0.4,0.7-1,1.5-1.8,2.3
			c-0.8,0.7-1.8,1.3-2.8,1.6c-1.9,0.7-3.6,0.4-3.6,0.2c0-0.1,1.6-0.2,3.3-0.9c0.8-0.4,1.7-0.9,2.4-1.6c0.7-0.7,1.2-1.4,1.5-2.1
			c0.6-1.2,0.8-1.4,1.1-1.3C147.6,209.8,147.8,210.4,147.2,211.5 M162.5,113c-0.2,0.3-0.6,0.6-1.1,0.9c-1,0.6-2,0.9-2.3,0.5
			c-0.3-0.4,0.2-1.4,1.3-2.1c0.5-0.3,1.1-0.6,1.6-0.6c0.5,0,0.9,0.2,0.9,0.4C162.9,112.5,162.8,112.7,162.5,113 M286.8,205.5
			c-1.3,1.7-3.9,3.8-6.5,4.8c-2.5,1.1-4.7,1.1-4.8,0.9c-0.1-0.3,2-0.9,4.1-2.2c2.2-1.3,4.3-3.3,5.5-4.8c1.1-1.3,1.6-1.4,2.1-1.1
			C287.8,203.3,288,204.1,286.8,205.5"/>
	</g>
	<g>
		<linearGradient id="SVGID_1_" gradientUnits="userSpaceOnUse" x1="284.0577" y1="228.3877" x2="177.634" y2="178.7616">
			<stop  offset="0.8528" style="stop-color:#F05562;stop-opacity:0"/>
			<stop  offset="0.8723" style="stop-color:#C64651;stop-opacity:2.649535e-02"/>
			<stop  offset="0.9072" style="stop-color:#802D34;stop-opacity:7.390773e-02"/>
			<stop  offset="0.9387" style="stop-color:#491A1E;stop-opacity:0.1167"/>
			<stop  offset="0.9656" style="stop-color:#210C0E;stop-opacity:0.1533"/>
			<stop  offset="0.9869" style="stop-color:#090304;stop-opacity:0.1822"/>
			<stop  offset="1" style="stop-color:#000000;stop-opacity:0.2"/>
		</linearGradient>
		<path fill="url(#SVGID_1_)" d="M166,204.4c-0.5,1.3-1,2.3-1.4,2.9c31.2,6.1,70.5,30.1,94.3,26.8c35.7-4.8,38-33.8,30.2-38.2
			c-23.1,28.1-80.5,7.1-120.5,2L166,204.4z M286.8,205.5c-1.3,1.7-3.9,3.8-6.5,4.8c-2.5,1.1-4.7,1.1-4.8,0.9c-0.1-0.3,2-0.9,4.1-2.2
			c2.2-1.3,4.3-3.3,5.5-4.8c1.1-1.3,1.6-1.4,2.1-1.1C287.8,203.3,287.9,204.1,286.8,205.5z"/>
		<path fill="#F05562" d="M131.7,263.7c0.1-0.1,0.1-0.2,0.2-0.4C131.8,263.5,131.7,263.6,131.7,263.7L131.7,263.7z"/>
		<linearGradient id="SVGID_2_" gradientUnits="userSpaceOnUse" x1="133.8514" y1="198.55" x2="146.1501" y2="203.0264">
			<stop  offset="0.3252" style="stop-color:#F05562;stop-opacity:0"/>
			<stop  offset="0.4146" style="stop-color:#C64651;stop-opacity:2.649535e-02"/>
			<stop  offset="0.5745" style="stop-color:#802D34;stop-opacity:7.390773e-02"/>
			<stop  offset="0.7189" style="stop-color:#491A1E;stop-opacity:0.1167"/>
			<stop  offset="0.8424" style="stop-color:#210C0E;stop-opacity:0.1533"/>
			<stop  offset="0.9401" style="stop-color:#090304;stop-opacity:0.1822"/>
			<stop  offset="1" style="stop-color:#000000;stop-opacity:0.2"/>
		</linearGradient>
		<path fill="url(#SVGID_2_)" d="M140.7,207.1c2.9-0.4,4.6-2.9,5.5-4.5c0.5-1.2,1-2.6,1.4-4.1l0.3-1.2c-6.8,0.7-12.3,2.8-16.1,6.8
			L140.7,207.1z"/>
	</g>
</g>
</svg>
