<?xml version="1.0" encoding="UTF-8" standalone="no"?>
<svg width="306px" height="40px" viewBox="0 0 306 28" version="1.1" xmlns="http://www.w3.org/2000/svg" xmlns:xlink="http://www.w3.org/1999/xlink" xmlns:sketch="http://www.bohemiancoding.com/sketch/ns">
    <title>spree-logo</title>
    <path d="M17.917,3.046 C16.751,1.252 14.451,0.179 11.765,0.179 C7.78,0.179 3.938,2.915 3.199,6.279 C2.383,10.226 5.229,12.004 7.741,13.574 C9.58,14.724 11.168,15.716 10.819,17.33 C10.585,18.448 9.057,19.503 7.674,19.503 C6.416,19.503 5.484,19.112 4.736,18.266 C4.493,18.023 4.3,17.723 4.098,17.406 C4.034,17.306 3.97,17.206 3.903,17.105 L3.849,17.026 L0.052,19.19 L0,19.22 L0,19.279 C0,19.38 0.192,19.875 0.195,19.884 C1.277,22.391 3.508,23.661 6.828,23.661 C11.051,23.661 14.957,20.858 15.721,17.278 C16.529,13.507 13.732,11.709 11.264,10.122 C9.377,8.909 7.747,7.861 8.102,6.183 C8.327,5.197 9.686,4.334 11.012,4.334 C11.994,4.334 12.858,4.626 13.583,5.207 C13.955,5.486 14.332,5.815 14.702,6.185 L14.767,6.249 L18.129,3.607 L18.168,3.576 L18.168,3.526 C18.168,3.437 18.005,3.131 17.917,3.046" id="Fill-26" fill="#478BBE" sketch:type="MSShapeGroup"></path>
    <path d="M27.548,19.468 C26.66,19.468 25.889,19.152 25.38,18.578 C24.851,17.982 24.622,17.136 24.734,16.197 C24.916,14.845 25.218,13.353 25.381,12.551 C25.428,12.315 25.466,12.131 25.484,12.024 C25.523,11.88 25.581,11.627 25.655,11.297 C25.843,10.463 26.158,9.068 26.566,7.743 C27.116,5.82 28.836,4.478 30.748,4.478 C31.616,4.478 32.382,4.794 32.904,5.367 C33.448,5.967 33.699,6.814 33.609,7.754 C33.518,8.844 33.154,10.741 32.858,11.977 C32.636,13.043 32.206,15.011 31.826,16.198 C31.179,18.093 29.38,19.468 27.548,19.468 L27.548,19.468 L27.548,19.468 L27.548,19.468 Z M36.982,2.38 C35.73,0.991 33.868,0.226 31.741,0.226 L31.641,0.226 C29.814,0.226 27.825,1.037 26.508,2.307 C26.433,1.693 26.094,0.983 25.853,0.707 C25.813,0.628 25.672,0.495 25.478,0.316 C25.429,0.271 25.388,0.233 25.363,0.208 L25.306,0.151 L21.236,2.624 L21.236,2.682 C21.236,2.716 21.251,2.758 21.312,2.92 C21.351,3.019 21.422,3.204 21.424,3.247 L21.453,3.341 C21.867,4.398 22.118,5.035 21.663,7.223 L16.999,28.771 L16.965,28.927 L22.126,27.795 L22.191,27.78 L23.324,22.257 C24.06,23.139 25.367,23.72 26.653,23.72 L26.752,23.72 C31.033,23.72 35.26,20.615 36.584,16.497 C36.949,15.324 37.372,13.632 37.716,11.975 C38.057,10.608 38.379,8.787 38.518,7.444 C38.719,5.501 38.174,3.702 36.982,2.38 L36.982,2.38 Z M36.982,2.38" id="Fill-28" fill="#478BBE" sketch:type="MSShapeGroup"></path>
    <path d="M55.263,0.516 C55.241,0.515 55.191,0.504 55.141,0.494 C55.075,0.48 55.029,0.471 54.996,0.468 C54.32,0.212 53.552,0.179 52.957,0.179 C51.292,0.179 49.432,0.912 47.945,2.146 C47.838,1.566 47.476,0.936 47.22,0.638 C47.166,0.586 47.039,0.474 46.927,0.375 C46.84,0.298 46.762,0.23 46.741,0.209 L46.684,0.152 L42.583,2.594 L42.533,2.624 L42.533,2.682 C42.533,2.719 42.549,2.759 42.612,2.91 C42.65,3 42.721,3.169 42.724,3.211 L42.737,3.262 C43.16,4.34 43.439,5.053 42.968,7.269 L39.51,23.546 L39.483,23.671 L44.447,23.671 L46.864,12.164 C47.243,10.598 47.913,8.063 47.921,8.033 C48.181,6.84 48.75,5.907 49.608,5.262 C50.315,4.758 51.018,4.513 51.757,4.513 C52.133,4.513 52.454,4.585 52.767,4.741 L52.813,4.753 C52.841,4.754 52.923,4.81 52.98,4.867 L53.079,4.966 L55.353,0.667 L55.426,0.523 L55.263,0.516" id="Fill-29" fill="#478BBE" sketch:type="MSShapeGroup"></path>
    <path d="M62.057,10.483 C61.698,10.482 61.347,10.475 61.012,10.468 L59.677,10.461 C59.725,10.275 59.773,10.09 59.819,9.906 C60.032,9.071 60.233,8.282 60.492,7.577 C61.083,5.713 63.071,4.253 65.017,4.253 C66.12,4.253 66.922,4.552 67.401,5.142 C67.834,5.676 67.974,6.439 67.795,7.289 C67.193,10.103 64.557,10.483 62.057,10.483 L62.057,10.483 L62.057,10.483 L62.057,10.483 Z M71.707,2.483 C70.493,0.975 68.425,0.179 65.725,0.179 C61.321,0.179 57.094,3.204 55.674,7.37 C55.252,8.541 54.635,11.094 54.397,12.337 C54.119,13.674 53.932,15.011 53.735,16.496 C53.496,18.361 54.001,20.112 55.157,21.424 C56.468,22.914 58.479,23.735 60.819,23.735 C63.831,23.735 66.825,22.438 68.633,20.35 L68.684,20.291 L66.881,17.539 L66.794,17.608 C66.359,17.944 65.968,18.188 65.62,18.405 C64.403,19.218 63.221,19.565 61.67,19.565 C60.727,19.547 59.948,19.215 59.419,18.605 C58.833,17.93 58.573,16.93 58.704,15.856 C58.742,15.365 58.874,14.679 58.922,14.444 L61.432,14.49 C67.89,14.49 71.67,12.065 72.665,7.285 C73.064,5.451 72.724,3.745 71.707,2.483 L71.707,2.483 Z M71.707,2.483" id="Fill-30" fill="#478BBE" sketch:type="MSShapeGroup"></path>
    <path d="M82.202,10.483 C81.843,10.482 81.491,10.475 81.156,10.468 L79.821,10.461 C79.87,10.275 79.917,10.09 79.963,9.906 C80.177,9.071 80.378,8.282 80.636,7.577 C81.228,5.713 83.216,4.253 85.162,4.253 C86.265,4.253 87.067,4.552 87.546,5.142 C87.979,5.676 88.119,6.439 87.939,7.289 C87.337,10.103 84.702,10.483 82.202,10.483 L82.202,10.483 L82.202,10.483 L82.202,10.483 Z M91.851,2.483 C90.638,0.975 88.569,0.179 85.869,0.179 C81.466,0.179 77.239,3.204 75.819,7.37 C75.396,8.541 74.78,11.094 74.542,12.337 C74.264,13.674 74.077,15.011 73.879,16.496 C73.64,18.361 74.146,20.112 75.301,21.424 C76.613,22.914 78.623,23.735 80.964,23.735 C83.975,23.735 86.97,22.438 88.778,20.35 L88.829,20.291 L87.026,17.539 L86.938,17.608 C86.504,17.944 86.112,18.188 85.764,18.405 C84.547,19.218 83.366,19.565 81.814,19.565 C80.871,19.547 80.093,19.215 79.563,18.605 C78.978,17.93 78.718,16.93 78.849,15.856 C78.886,15.365 79.019,14.679 79.066,14.444 L81.577,14.49 C88.035,14.49 91.815,12.065 92.809,7.285 C93.209,5.451 92.869,3.745 91.851,2.483 L91.851,2.483 Z M91.851,2.483" id="Fill-31" fill="#478BBE" sketch:type="MSShapeGroup"></path>
    <path d="M111.613,3.089 C111.601,3.071 111.59,3.061 111.592,3.062 L111.592,3.032 L111.576,3.007 C110.408,1.158 108.601,0.18 106.354,0.18 C102.337,0.18 98.452,3.121 97.117,7.174 C96.687,8.466 96.125,10.63 95.89,11.895 C95.48,13.636 95.245,15.358 95.087,16.663 C94.835,18.588 95.321,20.359 96.454,21.65 C97.616,22.973 99.376,23.703 101.407,23.703 C104.06,23.703 106.664,22.401 108.566,20.113 C108.587,20.071 108.619,20.03 108.65,19.987 C108.689,19.935 108.728,19.883 108.753,19.831 L108.791,19.756 L106.769,18.187 L106.705,18.251 C106.179,18.778 105.719,19.179 105.255,19.516 C104.263,20.283 103.175,20.671 102.02,20.671 C100.899,20.671 99.913,20.264 99.245,19.525 C98.591,18.801 98.291,17.81 98.4,16.731 C98.501,15.418 98.991,12.868 99.152,12.035 C99.653,9.872 100.064,8.322 100.374,7.429 C101.158,5.078 103.587,3.165 105.788,3.165 C106.56,3.165 107.333,3.443 108.092,4.001 C108.453,4.318 108.826,4.646 109.147,5.057 L109.208,5.135 L111.685,3.35 L111.685,3.297 C111.685,3.214 111.643,3.142 111.613,3.089" id="Fill-32" fill="#7CB742" sketch:type="MSShapeGroup"></path>
    <path d="M126.174,7.293 C126.081,8.516 125.651,10.748 125.375,11.946 C125.147,13.129 124.632,15.353 124.201,16.595 C123.415,18.908 120.995,20.72 118.692,20.72 C117.589,20.72 116.596,20.295 115.896,19.523 C115.195,18.75 114.869,17.709 114.979,16.59 C115.065,15.519 115.427,13.574 115.667,12.287 L115.73,11.941 L115.811,11.603 C116.113,10.343 116.568,8.441 116.952,7.288 C117.741,5.015 120.212,3.165 122.461,3.165 C123.556,3.165 124.548,3.593 125.252,4.373 C125.957,5.153 126.285,6.189 126.174,7.293 C126.174,7.293 126.285,6.189 126.174,7.293 L126.174,7.293 L126.174,7.293 Z M127.948,2.193 C126.766,0.895 125.035,0.18 123.074,0.18 C118.988,0.18 115.025,3.142 113.65,7.221 C113.218,8.465 112.695,10.714 112.422,11.944 C112.133,13.304 111.886,14.847 111.665,16.663 C111.419,18.547 111.91,20.299 113.048,21.594 C114.241,22.954 116.029,23.703 118.081,23.703 C122.241,23.703 126.273,20.694 127.46,16.706 C127.978,14.987 128.379,13.427 128.686,11.941 C128.973,10.698 129.347,8.492 129.487,7.218 C129.671,5.27 129.124,3.485 127.948,2.193 L127.948,2.193 Z M127.948,2.193" id="Fill-33" fill="#7CB742" sketch:type="MSShapeGroup"></path>
    <path d="M158.308,1.855 C157.333,0.759 155.936,0.181 154.272,0.181 L154.177,0.181 C152.159,0.225 149.512,1.379 148.243,3.506 C147.289,1.299 145.668,0.179 143.423,0.179 C143.378,0.179 143.331,0.18 143.284,0.181 C141.519,0.225 139.868,1.102 138.243,2.86 C138.16,1.814 137.596,0.831 137.408,0.641 C137.406,0.64 137.223,0.456 137.134,0.322 L137.082,0.243 L134.279,1.822 L134.552,2.475 L134.591,2.587 C134.955,3.631 135.243,4.454 134.74,6.835 L131.19,23.537 L131.163,23.661 L134.541,23.661 L136.957,12.208 C137.383,10.357 138.099,7.439 138.107,7.409 C138.726,4.745 140.404,3.218 142.71,3.218 C143.544,3.218 144.204,3.481 144.668,4 C145.31,4.717 145.561,5.901 145.391,7.428 C145.343,8.363 144.929,10.222 144.682,11.263 L144.678,11.277 C144.676,11.285 144.675,11.291 144.674,11.298 L144.675,11.298 C144.634,11.506 144.301,13.103 142.082,23.537 L142.056,23.661 L145.433,23.661 L145.45,23.58 C147.72,12.996 148.123,11.117 148.172,10.756 L148.188,10.758 L148.173,10.754 C148.173,10.752 148.173,10.75 148.174,10.748 L148.19,10.751 L149.003,7.409 C149.621,4.745 151.299,3.218 153.605,3.218 C154.44,3.218 155.097,3.481 155.562,4 C156.204,4.717 156.455,5.901 156.285,7.428 C156.239,8.306 155.875,9.998 155.576,11.263 L155.574,11.278 C155.571,11.285 155.57,11.292 155.568,11.298 L155.57,11.298 C155.528,11.506 155.195,13.104 152.976,23.537 L152.949,23.661 L156.326,23.661 L158.839,11.868 C158.902,11.56 158.98,11.192 159.063,10.794 C159.301,9.665 159.597,8.258 159.705,7.398 C159.969,5.131 159.472,3.162 158.308,1.855" id="Fill-34" fill="#7CB742" sketch:type="MSShapeGroup"></path>
    <path d="M188.672,1.856 C187.696,0.76 186.301,0.181 184.636,0.181 L184.54,0.181 C182.523,0.225 179.876,1.38 178.607,3.506 C177.651,1.299 176.031,0.179 173.787,0.179 C173.741,0.179 173.694,0.18 173.647,0.181 C171.88,0.225 170.23,1.102 168.608,2.86 C168.525,1.815 167.96,0.831 167.771,0.641 C167.77,0.639 167.586,0.456 167.496,0.322 L167.443,0.243 L164.642,1.822 L164.914,2.475 L164.954,2.589 C165.319,3.632 165.607,4.456 165.104,6.835 L161.553,23.537 L161.526,23.661 L164.903,23.661 L167.321,12.207 C167.747,10.357 168.463,7.439 168.471,7.409 C169.091,4.745 170.767,3.218 173.073,3.218 C173.908,3.218 174.567,3.481 175.032,4 C175.673,4.717 175.923,5.9 175.755,7.428 C175.706,8.362 175.29,10.228 175.046,11.26 C175.044,11.269 175.041,11.281 175.037,11.298 L175.033,11.313 L175.036,11.316 C174.981,11.587 174.613,13.35 172.445,23.537 L172.418,23.661 L175.798,23.661 L175.815,23.58 C178.087,12.986 178.489,11.114 178.537,10.754 L178.553,10.757 L178.537,10.752 C178.538,10.751 178.538,10.75 178.538,10.748 L178.554,10.751 L179.366,7.409 C179.984,4.745 181.661,3.218 183.967,3.218 C184.802,3.218 185.46,3.481 185.925,4 C186.568,4.717 186.818,5.901 186.649,7.428 C186.6,8.409 186.135,10.436 185.938,11.262 L185.936,11.277 C185.933,11.285 185.932,11.291 185.93,11.298 L185.928,11.31 L185.929,11.313 C185.877,11.572 185.515,13.308 183.339,23.537 L183.313,23.661 L186.688,23.661 L189.202,11.868 C189.264,11.562 189.342,11.196 189.425,10.803 C189.663,9.67 189.959,8.26 190.067,7.398 C190.333,5.132 189.837,3.164 188.672,1.856" id="Fill-35" fill="#7CB742" sketch:type="MSShapeGroup"></path>
    <path d="M203.182,3.166 C204.562,3.166 205.623,3.579 206.251,4.361 C206.808,5.054 206.987,6.007 206.757,7.045 C206.026,10.547 202.964,11.03 199.765,11.03 C199.458,11.03 199.158,11.026 198.869,11.022 C198.6,11.019 198.342,11.015 198.095,11.015 L196.902,11.015 C197.178,9.778 197.544,8.148 197.816,7.287 C198.614,4.938 200.922,3.166 203.182,3.166 C203.182,3.166 200.922,3.166 203.182,3.166 L203.182,3.166 L203.182,3.166 Z M209.208,2.3 C208.082,0.914 206.21,0.18 203.794,0.18 C199.777,0.18 195.893,3.122 194.558,7.176 C194.147,8.408 193.479,11.006 193.235,12.32 C192.914,13.749 192.725,15.177 192.542,16.557 L192.528,16.664 C192.297,18.601 192.803,20.38 193.95,21.673 C195.112,22.982 196.852,23.703 198.848,23.703 C202.128,23.703 205.147,22.039 207.128,19.137 L207.189,19.046 L205.047,17.769 L204.991,17.833 C204.609,18.261 204.237,18.632 203.819,19.001 C202.613,20.077 200.982,20.718 199.458,20.718 C198.41,20.718 197.466,20.315 196.802,19.581 C196.098,18.802 195.774,17.741 195.888,16.593 C195.948,16.03 196.043,15.475 196.143,14.887 C196.197,14.579 196.25,14.268 196.299,13.952 L197.718,13.952 C203.139,13.952 208.857,13.131 210.16,7.04 C210.544,5.213 210.206,3.53 209.208,2.3 L209.208,2.3 Z M209.208,2.3" id="Fill-36" fill="#7CB742" sketch:type="MSShapeGroup"></path>
    <path d="M226.263,0.426 C225.703,0.254 225.089,0.18 224.205,0.18 C222.258,0.227 220.296,1.042 218.655,2.479 C218.53,1.68 217.966,0.826 217.782,0.643 C217.781,0.641 217.596,0.456 217.505,0.322 L217.452,0.245 L214.723,1.732 L214.644,1.776 L214.915,2.478 C214.949,2.599 214.985,2.715 215.02,2.83 C215.318,3.8 215.575,4.639 215.106,6.856 L211.543,23.611 L211.516,23.735 L214.904,23.735 L217.33,12.243 C217.709,10.485 218.426,7.798 218.434,7.768 C218.805,6.234 219.496,5.12 220.612,4.263 C221.418,3.648 222.345,3.323 223.295,3.323 C223.87,3.323 224.284,3.396 224.597,3.553 L224.974,3.741 L226.658,0.67 L226.721,0.557 L226.263,0.426" id="Fill-37" fill="#7CB742" sketch:type="MSShapeGroup"></path>
    <path d="M241.351,3.089 C241.343,3.074 241.335,3.061 241.335,3.061 L241.331,3.032 L241.315,3.007 C240.149,1.158 238.344,0.18 236.094,0.18 C232.079,0.18 228.194,3.121 226.857,7.174 C226.426,8.478 225.864,10.642 225.63,11.895 C225.22,13.641 224.986,15.361 224.828,16.663 C224.576,18.588 225.062,20.359 226.195,21.65 C227.357,22.973 229.116,23.703 231.149,23.703 C233.802,23.703 236.406,22.401 238.306,20.113 C238.326,20.071 238.36,20.03 238.391,19.987 C238.431,19.935 238.468,19.883 238.495,19.831 L238.533,19.756 L236.511,18.187 L236.447,18.251 C235.923,18.774 235.464,19.176 234.995,19.516 C234.018,20.272 232.9,20.671 231.762,20.671 C230.64,20.671 229.654,20.264 228.986,19.525 C228.332,18.801 228.032,17.809 228.141,16.731 C228.242,15.423 228.733,12.87 228.894,12.035 C229.395,9.872 229.806,8.323 230.115,7.429 C230.898,5.078 233.327,3.165 235.529,3.165 C236.301,3.165 237.073,3.443 237.818,3.988 L237.843,4.01 C238.201,4.324 238.57,4.65 238.887,5.057 L238.949,5.135 L241.426,3.35 L241.426,3.297 C241.426,3.214 241.383,3.142 241.351,3.089" id="Fill-38" fill="#7CB742" sketch:type="MSShapeGroup"></path>
    <path d="M252.267,3.166 C253.648,3.166 254.708,3.579 255.336,4.361 C255.893,5.054 256.072,6.007 255.842,7.045 C255.111,10.547 252.049,11.03 248.85,11.03 C248.544,11.03 248.244,11.026 247.955,11.022 C247.686,11.019 247.427,11.015 247.181,11.015 L245.988,11.015 C246.264,9.778 246.629,8.148 246.901,7.287 C247.699,4.938 250.007,3.166 252.267,3.166 C252.267,3.166 250.007,3.166 252.267,3.166 L252.267,3.166 L252.267,3.166 Z M258.294,2.3 C257.168,0.914 255.296,0.18 252.879,0.18 C248.862,0.18 244.978,3.122 243.643,7.176 C243.232,8.408 242.564,11.006 242.321,12.32 C241.999,13.749 241.811,15.177 241.627,16.557 L241.614,16.664 C241.382,18.601 241.888,20.38 243.036,21.673 C244.198,22.982 245.937,23.703 247.933,23.703 C251.214,23.703 254.233,22.039 256.213,19.137 L256.275,19.046 L254.132,17.769 L254.076,17.833 C253.695,18.261 253.322,18.632 252.905,19.001 C251.698,20.077 250.067,20.718 248.544,20.718 C247.495,20.718 246.552,20.315 245.887,19.581 C245.183,18.802 244.859,17.741 244.973,16.593 C245.033,16.03 245.128,15.475 245.229,14.887 C245.282,14.579 245.336,14.268 245.384,13.952 L246.803,13.952 C252.224,13.952 257.943,13.131 259.246,7.04 C259.63,5.213 259.291,3.53 258.294,2.3 L258.294,2.3 Z M258.294,2.3" id="Fill-39" fill="#7CB742" sketch:type="MSShapeGroup"></path>
</svg>
